<svg xmlns="http://www.w3.org/2000/svg" width="36.999" height="30.025" viewBox="0 0 36.999 30.025"><defs><style>.a,.b{fill:none;stroke:#fff;stroke-width:2px;}.a{stroke-linecap:round;stroke-linejoin:round;}</style></defs><g transform="translate(8211.501 3269.15)"><path class="a" d="M15.151,26.87a3.043,3.043,0,0,1-1.462-.376L3.461,20.9A2.787,2.787,0,0,1,2,18.476V7.282A2.733,2.733,0,0,1,2.646,5.53l-.161-.1h.254a2.883,2.883,0,0,1,.723-.564L13.69-.739a3.032,3.032,0,0,1,2.922,0l10.229,5.6a2.927,2.927,0,0,1,.4.266v9.906l1.062-.695v4.138A2.789,2.789,0,0,1,26.84,20.9L16.611,26.5a3.022,3.022,0,0,1-1.461.375Z" transform="translate(-8212.501 -3267)"/><path class="a" d="M16.775,18.264,12.137,14.44,7.5,18.264V6.029A1.438,1.438,0,0,1,8.825,4.5H15.45a1.438,1.438,0,0,1,1.325,1.529Z" transform="translate(-8192.285 -3270.5)"/><path class="b" d="M-8221.94-3223.83l12.657,7.526,12.023-6.788" transform="translate(12.57 -37.386)"/><path class="b" d="M-8191.79-3206.77v14.216" transform="translate(-5.305 -47.346)"/></g></svg>