<svg xmlns="http://www.w3.org/2000/svg" width="31.606" height="24" viewBox="0 0 31.606 24"><defs><style>.a{fill:#fff;}.b{fill:none;stroke:#fff;stroke-linecap:round;stroke-linejoin:round;stroke-width:2px;}</style></defs><g transform="translate(-189 -270)"><path class="a" d="M18,8.85A3.15,3.15,0,1,1,14.85,12,3.15,3.15,0,0,1,18,8.85m0,13.5c4.455,0,9.15,2.19,9.15,3.15v1.65H8.85V25.5c0-.96,4.695-3.15,9.15-3.15M18,6a6,6,0,1,0,6,6A6,6,0,0,0,18,6Zm0,13.5c-4.005,0-12,2.01-12,6V30H30V25.5C30,21.51,22,19.5,18,19.5Z" transform="translate(183 264)"/><g transform="translate(203.8 268)"><path class="b" d="M18,7.5v8.306" transform="translate(-6.347)"/><path class="b" d="M7.5,18h8.306" transform="translate(0 -6.347)"/></g></g></svg>