<svg xmlns="http://www.w3.org/2000/svg" width="27" height="27" viewBox="0 0 27 27"><defs><style>.a{fill:#fff;}.b{fill:none;stroke:#fff;stroke-linecap:round;stroke-linejoin:round;stroke-width:2px;}</style></defs><g transform="translate(-26.1 -172)"><path class="a" d="M6.155,6.75H.283A.291.291,0,0,0,0,7.05V8.114a.291.291,0,0,0,.283.3h2.01v5.964a.291.291,0,0,0,.283.3H3.859a.291.291,0,0,0,.283-.3V8.411h2.01a.291.291,0,0,0,.283-.3V7.047a.288.288,0,0,0-.28-.3Zm8.96,7.6-.567-7.328a.289.289,0,0,0-.283-.272H12.72a.284.284,0,0,0-.267.2L11.419,10.1c-.17.51-.38,1.307-.38,1.307h-.021s-.21-.8-.38-1.307L9.6,6.951a.286.286,0,0,0-.267-.2H7.791a.292.292,0,0,0-.283.272L6.932,14.35a.291.291,0,0,0,.283.322H8.5a.292.292,0,0,0,.283-.277L9,11.1A12.284,12.284,0,0,0,9,9.775h.021s.253.832.423,1.329l.725,2.1a.285.285,0,0,0,.267.2h1.188a.285.285,0,0,0,.267-.2l.725-2.1c.17-.5.423-1.329.423-1.329h.021a12.284,12.284,0,0,0,0,1.329l.215,3.29a.29.29,0,0,0,.283.277h1.273a.294.294,0,0,0,.284-.321Z" transform="translate(32 174.578)"/><path class="b" d="M28,15.5A12.5,12.5,0,1,1,15.5,3,12.5,12.5,0,0,1,28,15.5Z" transform="translate(24.1 170)"/></g></svg>