<svg xmlns="http://www.w3.org/2000/svg" width="25.635" height="29.905" viewBox="0 0 25.635 29.905"><defs><style>.a{fill:#fff;}</style></defs><path class="a" d="M25.424,2.25a4.722,4.722,0,0,0-3.545,7.832,4.666,4.666,0,0,0,2.55,1.5V14.46l-7.11,3.7-7.1-3.7V11.584a4.717,4.717,0,1,0-4.547-1.5,4.666,4.666,0,0,0,2.55,1.5v3.832a.467.467,0,0,0,.26.421L16.324,19.9v2.931a4.715,4.715,0,1,0,4.54,1.5,4.666,4.666,0,0,0-2.55-1.5V19.9l7.845-4.059a.467.467,0,0,0,.26-.421V11.584a4.721,4.721,0,0,0-1-9.334ZM6.49,6.97A2.724,2.724,0,1,1,9.214,9.694,2.724,2.724,0,0,1,6.49,6.97ZM20.043,27.44a2.724,2.724,0,1,1-2.724-2.724A2.724,2.724,0,0,1,20.043,27.44ZM25.424,9.7a2.724,2.724,0,1,1,2.724-2.724A2.724,2.724,0,0,1,25.424,9.7Z" transform="translate(-4.502 -2.25)"/></svg>